<svg xmlns="http://www.w3.org/2000/svg" version="1.1" xmlns:xlink="http://www.w3.org/1999/xlink" xmlns:svgjs="http://svgjs.dev/svgjs" width="1500" height="1500" viewBox="0 0 1500 1500"><rect width="1500" height="1500" fill="#ffffff"></rect><g transform="matrix(0.6666666666666666,0,0,0.6666666666666666,249.39393939393938,658.4127991818561)"><svg viewBox="0 0 396 73" data-background-color="#ffffff" preserveAspectRatio="xMidYMid meet" height="276" width="1500" xmlns="http://www.w3.org/2000/svg" xmlns:xlink="http://www.w3.org/1999/xlink"><g id="tight-bounds" transform="matrix(1,0,0,1,0.2400000000000091,-0.1637735884538074)"><svg viewBox="0 0 395.52 73.32754717690761" height="73.32754717690761" width="395.52"><g><svg viewBox="0 0 556.1030006802375 103.09888000000001" height="73.32754717690761" width="395.52"><g><rect width="6.727614613924863" height="74.97422170767004" x="120.71043658095515" y="14.062329146164984" fill="#35185a" opacity="1" stroke-width="0" stroke="transparent" fill-opacity="1" class="rect-qz-0" data-fill-palette-color="primary" rx="1%" id="qz-0" data-palette-color="#35185a"></rect></g><g><rect width="6.727614613924863" height="74.97422170767004" x="136.24382948535757" y="14.062329146164984" fill="#35185a" opacity="1" stroke-width="0" stroke="transparent" fill-opacity="1" class="rect-qz-1" data-fill-palette-color="primary" rx="1%" id="qz-1" data-palette-color="#35185a"></rect></g><g transform="matrix(1,0,0,1,160.58300068023755,14.24883218523879)"><svg viewBox="0 0 395.52 74.60121562952243" height="74.60121562952243" width="395.52"><g id="textblocktransform"><svg viewBox="0 0 395.52 74.60121562952243" height="74.60121562952243" width="395.52" id="textblock"><g><svg viewBox="0 0 395.52 74.60121562952243" height="74.60121562952243" width="395.52"><g transform="matrix(1,0,0,1,0,0)"><svg width="395.52" viewBox="3.25 -37.7 202.42 38.190000000000005" height="74.60121562952243" data-palette-color="#35185a"><path d="M27.76-7.01L27.76 0 3.25 0 3.25-35.01 10.25-35.01 10.25-7.01 27.76-7.01ZM55.34-26.1L55.34 0 53.73 0 51.14-3.59Q50.19-2.73 49.13-1.99 48.07-1.25 46.9-0.7 45.73-0.15 44.49 0.17 43.26 0.49 41.99 0.49L41.99 0.49Q39.23 0.49 36.8-0.44 34.37-1.37 32.55-3.14 30.73-4.91 29.68-7.47 28.64-10.03 28.64-13.31L28.64-13.31Q28.64-16.36 29.68-18.91 30.73-21.46 32.55-23.29 34.37-25.12 36.8-26.14 39.23-27.15 41.99-27.15L41.99-27.15Q43.26-27.15 44.5-26.83 45.75-26.51 46.92-25.95 48.09-25.39 49.16-24.63 50.22-23.88 51.14-23L51.14-23 53.73-26.1 55.34-26.1ZM48.63-13.31L48.63-13.31Q48.63-14.67 48.11-15.95 47.58-17.24 46.68-18.23 45.77-19.21 44.57-19.81 43.36-20.41 41.99-20.41L41.99-20.41Q40.62-20.41 39.41-19.95 38.21-19.48 37.31-18.58 36.42-17.68 35.91-16.35 35.4-15.01 35.4-13.31L35.4-13.31Q35.4-11.6 35.91-10.27 36.42-8.94 37.31-8.03 38.21-7.13 39.41-6.67 40.62-6.2 41.99-6.2L41.99-6.2Q43.36-6.2 44.57-6.8 45.77-7.4 46.68-8.39 47.58-9.38 48.11-10.66 48.63-11.94 48.63-13.31ZM67.08-14.4L67.08 0 60.42 0 60.42-26.15 62.03-26.15 64.23-23.05Q65.84-24.51 67.89-25.31 69.94-26.1 72.14-26.1L72.14-26.1 78.02-26.1 78.02-19.46 72.14-19.46Q71.09-19.46 70.16-19.07 69.23-18.68 68.55-17.99 67.87-17.31 67.48-16.38 67.08-15.45 67.08-14.4L67.08-14.4ZM105.95-26.1L105.95 0 104.34 0 101.75-3.59Q100.8-2.73 99.74-1.99 98.67-1.25 97.5-0.7 96.33-0.15 95.1 0.17 93.86 0.49 92.6 0.49L92.6 0.49Q89.84 0.49 87.41-0.44 84.98-1.37 83.16-3.14 81.34-4.91 80.29-7.47 79.24-10.03 79.24-13.31L79.24-13.31Q79.24-16.36 80.29-18.91 81.34-21.46 83.16-23.29 84.98-25.12 87.41-26.14 89.84-27.15 92.6-27.15L92.6-27.15Q93.86-27.15 95.11-26.83 96.35-26.51 97.53-25.95 98.7-25.39 99.76-24.63 100.82-23.88 101.75-23L101.75-23 104.34-26.1 105.95-26.1ZM99.24-13.31L99.24-13.31Q99.24-14.67 98.71-15.95 98.19-17.24 97.28-18.23 96.38-19.21 95.17-19.81 93.96-20.41 92.6-20.41L92.6-20.41Q91.23-20.41 90.02-19.95 88.81-19.48 87.92-18.58 87.03-17.68 86.52-16.35 86-15.01 86-13.31L86-13.31Q86-11.6 86.52-10.27 87.03-8.94 87.92-8.03 88.81-7.13 90.02-6.67 91.23-6.2 92.6-6.2L92.6-6.2Q93.96-6.2 95.17-6.8 96.38-7.4 97.28-8.39 98.19-9.38 98.71-10.66 99.24-11.94 99.24-13.31ZM130.48-35.01L138.49-35.01 126.99 0 119.99 0 108.53-35.01 116.49-35.01 123.48-11.65 130.48-35.01ZM148.99-33.25L148.99-33.25Q148.99-32.32 148.63-31.52 148.28-30.71 147.67-30.11 147.06-29.52 146.24-29.16 145.42-28.81 144.49-28.81L144.49-28.81Q143.57-28.81 142.75-29.16 141.93-29.52 141.33-30.11 140.73-30.71 140.38-31.52 140.03-32.32 140.03-33.25L140.03-33.25Q140.03-34.16 140.38-34.97 140.73-35.79 141.33-36.39 141.93-36.99 142.75-37.34 143.57-37.7 144.49-37.7L144.49-37.7Q145.42-37.7 146.24-37.34 147.06-36.99 147.67-36.39 148.28-35.79 148.63-34.97 148.99-34.16 148.99-33.25ZM147.84-26.15L147.84 0 141.13 0 141.13-26.15 147.84-26.15ZM179.09-13.31L179.09-13.31Q179.09-10.23 178.04-7.69 176.99-5.15 175.18-3.33 173.37-1.51 170.94-0.51 168.52 0.49 165.73 0.49L165.73 0.49Q162.97 0.49 160.54-0.54 158.11-1.56 156.3-3.39 154.48-5.22 153.43-7.75 152.38-10.28 152.38-13.31L152.38-13.31 152.38-36.55 159.07-36.55 159.07-24.34Q159.6-25.02 160.37-25.56 161.14-26.1 162.03-26.44 162.92-26.78 163.88-26.97 164.83-27.15 165.73-27.15L165.73-27.15Q168.52-27.15 170.94-26.11 173.37-25.07 175.18-23.22 176.99-21.36 178.04-18.84 179.09-16.31 179.09-13.31ZM172.37-13.31L172.37-13.31Q172.37-14.82 171.85-16.13 171.32-17.43 170.42-18.38 169.52-19.34 168.31-19.87 167.1-20.41 165.73-20.41L165.73-20.41Q164.36-20.41 163.16-19.81 161.95-19.21 161.04-18.23 160.14-17.24 159.63-15.95 159.12-14.67 159.12-13.31L159.12-13.31Q159.12-11.79 159.63-10.5 160.14-9.2 161.04-8.25 161.95-7.3 163.16-6.75 164.36-6.2 165.73-6.2L165.73-6.2Q167.1-6.2 168.31-6.75 169.52-7.3 170.42-8.25 171.32-9.2 171.85-10.5 172.37-11.79 172.37-13.31ZM205.67-21.46L193.17-6.4Q193.56-6.27 193.95-6.24 194.34-6.2 194.73-6.2L194.73-6.2Q195.71-6.2 196.61-6.47 197.52-6.74 198.31-7.24 199.1-7.74 199.73-8.46 200.35-9.18 200.74-10.06L200.74-10.06 205.62-5.15Q204.69-3.83 203.49-2.78 202.28-1.73 200.87-1 199.47-0.27 197.92 0.11 196.37 0.49 194.73 0.49L194.73 0.49Q191.97 0.49 189.55-0.54 187.12-1.56 185.3-3.39 183.48-5.22 182.43-7.75 181.38-10.28 181.38-13.31L181.38-13.31Q181.38-16.41 182.43-18.97 183.48-21.53 185.3-23.34 187.12-25.15 189.55-26.15 191.97-27.15 194.73-27.15L194.73-27.15Q196.37-27.15 197.93-26.76 199.49-26.37 200.9-25.63 202.3-24.9 203.52-23.84 204.74-22.78 205.67-21.46L205.67-21.46ZM188.83-9.84L196.59-20.14Q196.13-20.31 195.67-20.36 195.22-20.41 194.73-20.41L194.73-20.41Q193.37-20.41 192.16-19.91 190.95-19.41 190.06-18.48 189.17-17.55 188.65-16.25 188.14-14.94 188.14-13.31L188.14-13.31Q188.14-12.94 188.18-12.48 188.21-12.01 188.3-11.54 188.39-11.06 188.51-10.62 188.63-10.18 188.83-9.84L188.83-9.84Z" opacity="1" transform="matrix(1,0,0,1,0,0)" fill="#35185a" class="wordmark-text-0" data-fill-palette-color="primary" id="text-0"></path></svg></g></svg></g></svg></g></svg></g><g><svg viewBox="0 0 103.09888000000001 103.09888000000001" height="103.09888000000001" width="103.09888000000001"><g><svg xmlns="http://www.w3.org/2000/svg" xmlns:xlink="http://www.w3.org/1999/xlink" version="1.1" x="0" y="0" viewBox="0 0 24 24" style="enable-background:new 0 0 24 24;" xml:space="preserve" height="103.09888000000001" width="103.09888000000001" class="icon-icon-0" data-fill-palette-color="accent" id="icon-0"><g fill="#35185a" data-fill-palette-color="accent"><g fill="#35185a" data-fill-palette-color="accent"><path d="M22.5 10.586c-0.276 0-0.5-0.224-0.5-0.5V0.5C22 0.224 22.224 0 22.5 0S23 0.224 23 0.5v9.586C23 10.362 22.776 10.586 22.5 10.586z" fill="#35185a" data-fill-palette-color="accent"></path></g><g fill="#35185a" data-fill-palette-color="accent"><path d="M16 12c0-2.206-1.794-4-4-4s-4 1.794-4 4 1.794 4 4 4S16 14.206 16 12zM11 12c0-0.551 0.449-1 1-1s1 0.449 1 1-0.449 1-1 1S11 12.551 11 12z" fill="#35185a" data-fill-palette-color="accent"></path><path d="M23.854 10.854L22.207 12.5l0.646 0.646C22.948 13.241 23 13.368 23 13.501c0 0.133-0.054 0.26-0.148 0.354l-3.016 2.984c-0.097 0.096-0.225 0.145-0.352 0.145-0.128 0-0.256-0.049-0.354-0.146l-2-2c-0.094-0.094-0.147-0.222-0.146-0.355 0-0.133 0.054-0.26 0.148-0.354l3.016-2.984c0.196-0.192 0.511-0.192 0.705 0.002l0.646 0.646 1.5-1.5V7.219C21.148 2.976 16.917 0 12 0 5.383 0 0 5.383 0 12s5.383 12 12 12 12-5.383 12-12c0-0.427-0.024-0.848-0.068-1.264C23.909 10.778 23.887 10.82 23.854 10.854zM17.146 16.146c0.195-0.195 0.512-0.195 0.707 0s0.195 0.512 0 0.707l-1 1C16.756 17.951 16.628 18 16.5 18s-0.256-0.049-0.354-0.146c-0.195-0.195-0.195-0.512 0-0.707L17.146 16.146zM5.636 18.364c0.195 0.195 0.195 0.512 0 0.707-0.098 0.098-0.226 0.146-0.354 0.146s-0.256-0.049-0.354-0.146C3.043 17.185 2.004 14.674 2.004 12s1.039-5.185 2.925-7.071c0.195-0.195 0.512-0.195 0.707 0s0.195 0.512 0 0.707C3.939 7.333 3.004 9.593 3.004 12S3.939 16.667 5.636 18.364zM7 12c0-2.757 2.243-5 5-5s5 2.243 5 5-2.243 5-5 5S7 14.757 7 12zM19.071 19.071c-1.886 1.886-4.396 2.925-7.07 2.925-0.276 0-0.5-0.224-0.5-0.5s0.224-0.5 0.5-0.5c2.407 0 4.667-0.935 6.363-2.632 0.195-0.195 0.512-0.195 0.707 0S19.266 18.875 19.071 19.071z" fill="#35185a" data-fill-palette-color="accent"></path><polygon points="18.193,14.486 19.486,15.779 21.791,13.498 20.498,12.205   " fill="#35185a" data-fill-palette-color="accent"></polygon></g><path d="M20.854 11.146l0.646 0.646 1.354-1.354c0.195-0.195 0.195-0.512 0-0.707s-0.512-0.195-0.707 0l-1.366 1.366C20.805 11.115 20.832 11.125 20.854 11.146z" fill="#35185a" data-fill-palette-color="accent"></path></g></svg></g></svg></g></svg></g><defs></defs></svg><rect width="395.52" height="73.32754717690761" fill="none" stroke="none" visibility="hidden"></rect></g></svg></g></svg>