<svg xmlns="http://www.w3.org/2000/svg" version="1.1" xmlns:xlink="http://www.w3.org/1999/xlink" xmlns:svgjs="http://svgjs.dev/svgjs" width="1500" height="1500" viewBox="0 0 1500 1500"><rect width="1500" height="1500" fill="#000000"></rect><g transform="matrix(0.6666666666666666,0,0,0.6666666666666666,249.39393939393938,605.7561834716493)"><svg viewBox="0 0 396 114" data-background-color="#0718c4" preserveAspectRatio="xMidYMid meet" height="431" width="1500" xmlns="http://www.w3.org/2000/svg" xmlns:xlink="http://www.w3.org/1999/xlink"><g id="tight-bounds" transform="matrix(1,0,0,1,0.2400000000000091,0.22898521194429122)"><svg viewBox="0 0 395.52 113.54202957611143" height="113.54202957611143" width="395.52"><g><svg viewBox="0 0 635.4120130097527 182.4078923295152" height="113.54202957611143" width="395.52"><g><rect width="6.727614613924863" height="132.64828639013223" x="200.01944891047032" y="24.879802969691482" fill="#ffffff" opacity="1" stroke-width="0" stroke="transparent" fill-opacity="1" class="rect-qz-0" data-fill-palette-color="primary" rx="1%" id="qz-0" data-palette-color="#8dbdff"></rect></g><g><rect width="6.727614613924863" height="132.64828639013223" x="215.55284181487275" y="24.879802969691482" fill="#ffffff" opacity="1" stroke-width="0" stroke="transparent" fill-opacity="1" class="rect-qz-1" data-fill-palette-color="primary" rx="1%" id="qz-1" data-palette-color="#8dbdff"></rect></g><g transform="matrix(1,0,0,1,239.89201300975276,25.209773831358476)"><svg viewBox="0 0 395.52 131.98834466679824" height="131.98834466679824" width="395.52"><g id="textblocktransform"><svg viewBox="0 0 395.52 131.98834466679824" height="131.98834466679824" width="395.52" id="textblock"><g><svg viewBox="0 0 395.52 74.60121562952243" height="74.60121562952243" width="395.52"><g transform="matrix(1,0,0,1,0,0)"><svg width="395.52" viewBox="3.25 -37.7 202.42 38.190000000000005" height="74.60121562952243" data-palette-color="#8dbdff"><path d="M27.76-7.01L27.76 0 3.25 0 3.25-35.01 10.25-35.01 10.25-7.01 27.76-7.01ZM55.34-26.1L55.34 0 53.73 0 51.14-3.59Q50.19-2.73 49.13-1.99 48.07-1.25 46.9-0.7 45.73-0.15 44.49 0.17 43.26 0.49 41.99 0.49L41.99 0.49Q39.23 0.49 36.8-0.44 34.37-1.37 32.55-3.14 30.73-4.91 29.68-7.47 28.64-10.03 28.64-13.31L28.64-13.31Q28.64-16.36 29.68-18.91 30.73-21.46 32.55-23.29 34.37-25.12 36.8-26.14 39.23-27.15 41.99-27.15L41.99-27.15Q43.26-27.15 44.5-26.83 45.75-26.51 46.92-25.95 48.09-25.39 49.16-24.63 50.22-23.88 51.14-23L51.14-23 53.73-26.1 55.34-26.1ZM48.63-13.31L48.63-13.31Q48.63-14.67 48.11-15.95 47.58-17.24 46.68-18.23 45.77-19.21 44.57-19.81 43.36-20.41 41.99-20.41L41.99-20.41Q40.62-20.41 39.41-19.95 38.21-19.48 37.31-18.58 36.42-17.68 35.91-16.35 35.4-15.01 35.4-13.31L35.4-13.31Q35.4-11.6 35.91-10.27 36.42-8.94 37.31-8.03 38.21-7.13 39.41-6.67 40.62-6.2 41.99-6.2L41.99-6.2Q43.36-6.2 44.57-6.8 45.77-7.4 46.68-8.39 47.58-9.38 48.11-10.66 48.63-11.94 48.63-13.31ZM67.08-14.4L67.08 0 60.42 0 60.42-26.15 62.03-26.15 64.23-23.05Q65.84-24.51 67.89-25.31 69.94-26.1 72.14-26.1L72.14-26.1 78.02-26.1 78.02-19.46 72.14-19.46Q71.09-19.46 70.16-19.07 69.23-18.68 68.55-17.99 67.87-17.31 67.48-16.38 67.08-15.45 67.08-14.4L67.08-14.4ZM105.95-26.1L105.95 0 104.34 0 101.75-3.59Q100.8-2.73 99.74-1.99 98.67-1.25 97.5-0.7 96.33-0.15 95.1 0.17 93.86 0.49 92.6 0.49L92.6 0.49Q89.84 0.49 87.41-0.44 84.98-1.37 83.16-3.14 81.34-4.91 80.29-7.47 79.24-10.03 79.24-13.31L79.24-13.31Q79.24-16.36 80.29-18.91 81.34-21.46 83.16-23.29 84.98-25.12 87.41-26.14 89.84-27.15 92.6-27.15L92.6-27.15Q93.86-27.15 95.11-26.83 96.35-26.51 97.53-25.95 98.7-25.39 99.76-24.63 100.82-23.88 101.75-23L101.75-23 104.34-26.1 105.95-26.1ZM99.24-13.31L99.24-13.31Q99.24-14.67 98.71-15.95 98.19-17.24 97.28-18.23 96.38-19.21 95.17-19.81 93.96-20.41 92.6-20.41L92.6-20.41Q91.23-20.41 90.02-19.95 88.81-19.48 87.92-18.58 87.03-17.68 86.52-16.35 86-15.01 86-13.31L86-13.31Q86-11.6 86.52-10.27 87.03-8.94 87.92-8.03 88.81-7.13 90.02-6.67 91.23-6.2 92.6-6.2L92.6-6.2Q93.96-6.2 95.17-6.8 96.38-7.4 97.28-8.39 98.19-9.38 98.71-10.66 99.24-11.94 99.24-13.31ZM130.48-35.01L138.49-35.01 126.99 0 119.99 0 108.53-35.01 116.49-35.01 123.48-11.65 130.48-35.01ZM148.99-33.25L148.99-33.25Q148.99-32.32 148.63-31.52 148.28-30.71 147.67-30.11 147.06-29.52 146.24-29.16 145.42-28.81 144.49-28.81L144.49-28.81Q143.57-28.81 142.75-29.16 141.93-29.52 141.33-30.11 140.73-30.71 140.38-31.52 140.03-32.32 140.03-33.25L140.03-33.25Q140.03-34.16 140.38-34.97 140.73-35.79 141.33-36.39 141.93-36.99 142.75-37.34 143.57-37.7 144.49-37.7L144.49-37.7Q145.42-37.7 146.24-37.34 147.06-36.99 147.67-36.39 148.28-35.79 148.63-34.97 148.99-34.16 148.99-33.25ZM147.84-26.15L147.84 0 141.13 0 141.13-26.15 147.84-26.15ZM179.09-13.31L179.09-13.31Q179.09-10.23 178.04-7.69 176.99-5.15 175.18-3.33 173.37-1.51 170.94-0.51 168.52 0.49 165.73 0.49L165.73 0.49Q162.97 0.49 160.54-0.54 158.11-1.56 156.3-3.39 154.48-5.22 153.43-7.75 152.38-10.28 152.38-13.31L152.38-13.31 152.38-36.55 159.07-36.55 159.07-24.34Q159.6-25.02 160.37-25.56 161.14-26.1 162.03-26.44 162.92-26.78 163.88-26.97 164.83-27.15 165.73-27.15L165.73-27.15Q168.52-27.15 170.94-26.11 173.37-25.07 175.18-23.22 176.99-21.36 178.04-18.84 179.09-16.31 179.09-13.31ZM172.37-13.31L172.37-13.31Q172.37-14.82 171.85-16.13 171.32-17.43 170.42-18.38 169.52-19.34 168.31-19.87 167.1-20.41 165.73-20.41L165.73-20.41Q164.36-20.41 163.16-19.81 161.95-19.21 161.04-18.23 160.14-17.24 159.63-15.95 159.12-14.67 159.12-13.31L159.12-13.31Q159.12-11.79 159.63-10.5 160.14-9.2 161.04-8.25 161.95-7.3 163.16-6.75 164.36-6.2 165.73-6.2L165.73-6.2Q167.1-6.2 168.31-6.75 169.52-7.3 170.42-8.25 171.32-9.2 171.85-10.5 172.37-11.79 172.37-13.31ZM205.67-21.46L193.17-6.4Q193.56-6.27 193.95-6.24 194.34-6.2 194.73-6.2L194.73-6.2Q195.71-6.2 196.61-6.47 197.52-6.74 198.31-7.24 199.1-7.74 199.73-8.46 200.35-9.18 200.74-10.06L200.74-10.06 205.62-5.15Q204.69-3.83 203.49-2.78 202.28-1.73 200.87-1 199.47-0.27 197.92 0.11 196.37 0.49 194.73 0.49L194.73 0.49Q191.97 0.49 189.55-0.54 187.12-1.56 185.3-3.39 183.48-5.22 182.43-7.75 181.38-10.28 181.38-13.31L181.38-13.31Q181.38-16.41 182.43-18.97 183.48-21.53 185.3-23.34 187.12-25.15 189.55-26.15 191.97-27.15 194.73-27.15L194.73-27.15Q196.37-27.15 197.93-26.76 199.49-26.37 200.9-25.63 202.3-24.9 203.52-23.84 204.74-22.78 205.67-21.46L205.67-21.46ZM188.83-9.84L196.59-20.14Q196.13-20.31 195.67-20.36 195.22-20.41 194.73-20.41L194.73-20.41Q193.37-20.41 192.16-19.91 190.95-19.41 190.06-18.48 189.17-17.55 188.65-16.25 188.14-14.94 188.14-13.31L188.14-13.31Q188.14-12.94 188.18-12.48 188.21-12.01 188.3-11.54 188.39-11.06 188.51-10.62 188.63-10.18 188.83-9.84L188.83-9.84Z" opacity="1" transform="matrix(1,0,0,1,0,0)" fill="#ffffff" class="wordmark-text-0" data-fill-palette-color="primary" id="text-0"></path></svg></g></svg></g><g transform="matrix(1,0,0,1,0,92.21277221047757)"><svg viewBox="0 0 232.20979199999996 39.77557245632066" height="39.77557245632066" width="232.20979199999996"><g transform="matrix(1,0,0,1,0,0)"><svg width="232.20979199999996" viewBox="3.8 -38.15 291.87 50" height="39.77557245632066" data-palette-color="#77d4fc"><path d="M7.75 0L3.8 0 3.8-26.7 6.9-26.7 7.75-23.75Q9.75-25.15 12.23-26.15 14.7-27.15 17.75-27.15L17.75-27.15Q20.25-27.15 22.03-26.03 23.8-24.9 24.7-23.2L24.7-23.2Q25.95-24.1 27.73-25 29.5-25.9 31.53-26.53 33.55-27.15 35.45-27.15L35.45-27.15Q38.35-27.15 40.2-25.93 42.05-24.7 42.93-22.63 43.8-20.55 43.8-18L43.8-18 43.8 0 39.85 0 39.85-17.7Q39.85-19.4 39.18-20.73 38.5-22.05 37.25-22.8 36-23.55 34.2-23.55L34.2-23.55Q31.95-23.55 29.6-22.7 27.25-21.85 25.25-20.65L25.25-20.65Q25.5-19.9 25.63-19.18 25.75-18.45 25.75-17.65L25.75-17.65 25.75 0 21.8 0 21.8-17.7Q21.8-19.4 21.13-20.73 20.45-22.05 19.23-22.8 18-23.55 16.2-23.55L16.2-23.55Q14.55-23.55 13.13-23.23 11.7-22.9 10.43-22.33 9.15-21.75 7.75-20.95L7.75-20.95 7.75 0ZM59.15 0.3L59.15 0.3Q55.3 0.3 53.22-1.7 51.15-3.7 51.15-7.9L51.15-7.9 51.15-26.7 55.1-26.7 55.1-8.9Q55.1-5.55 56.62-4.38 58.15-3.2 60.9-3.2L60.9-3.2Q63.25-3.2 65.2-3.88 67.15-4.55 69.2-5.75L69.2-5.75 69.2-26.7 73.15-26.7 73.15 0 70.05 0 69.2-2.95Q67.15-1.65 64.57-0.68 62 0.3 59.15 0.3ZM89.8 0.3L89.8 0.3Q88.8 0.3 87.35 0.25 85.9 0.2 84.32 0.1 82.75 0 81.47-0.13 80.2-0.25 79.5-0.4L79.5-0.4 79.5-2.8 90.45-2.8Q92.1-2.8 93.3-3.05 94.5-3.3 95.17-4.15 95.85-5 95.85-6.7L95.85-6.7 95.85-7.9Q95.85-9.65 94.7-10.63 93.55-11.6 91-11.6L91-11.6 87.25-11.6Q84.9-11.6 83.07-12.2 81.25-12.8 80.25-14.25 79.25-15.7 79.25-18.25L79.25-18.25 79.25-19.65Q79.25-22.15 80.22-23.75 81.2-25.35 83.27-26.15 85.35-26.95 88.65-26.95L88.65-26.95Q90.05-26.95 91.87-26.85 93.7-26.75 95.45-26.58 97.2-26.4 98.3-26.2L98.3-26.2 98.3-23.8 88-23.8Q85.45-23.8 84.07-22.95 82.7-22.1 82.7-19.65L82.7-19.65 82.7-18.55Q82.7-17 83.35-16.23 84-15.45 85.17-15.2 86.35-14.95 87.9-14.95L87.9-14.95 91.7-14.95Q95.35-14.95 97.35-13.25 99.35-11.55 99.35-8.35L99.35-8.35 99.35-6.5Q99.35-3.8 98.12-2.33 96.9-0.85 94.77-0.28 92.65 0.3 89.8 0.3ZM108.99-31.45L106.19-31.45Q105.39-31.45 105.39-32.25L105.39-32.25 105.39-36.15Q105.39-36.95 106.19-36.95L106.19-36.95 108.99-36.95Q109.39-36.95 109.57-36.73 109.74-36.5 109.74-36.15L109.74-36.15 109.74-32.25Q109.74-31.45 108.99-31.45L108.99-31.45ZM109.54 0L105.59 0 105.59-26.7 109.54-26.7 109.54 0ZM126.84 0.3L126.84 0.3Q124.59 0.3 122.64-0.3 120.69-0.9 119.24-2.4 117.79-3.9 116.99-6.55 116.19-9.2 116.19-13.3L116.19-13.3Q116.19-17.45 116.94-20.13 117.69-22.8 119.09-24.3 120.49-25.8 122.49-26.4 124.49-27 126.94-27L126.94-27Q128.94-27 131.29-26.83 133.64-26.65 135.79-26.3L135.79-26.3 135.79-23.95 127.99-23.95Q125.44-23.95 123.69-23.1 121.94-22.25 121.04-19.93 120.14-17.6 120.14-13.2L120.14-13.2Q120.14-8.95 121.09-6.7 122.04-4.45 123.79-3.63 125.54-2.8 128.04-2.8L128.04-2.8 136.19-2.8 136.19-0.5Q135.04-0.3 133.52-0.1 131.99 0.1 130.29 0.2 128.59 0.3 126.84 0.3ZM159.09 11.85L155.14 11.85 155.14-26.7 158.34-26.7 159.09-23.95Q159.99-24.6 161.41-25.33 162.84-26.05 164.51-26.55 166.19-27.05 167.84-27.05L167.84-27.05Q170.44-27.05 172.26-25.93 174.09-24.8 175.24-22.9 176.39-21 176.89-18.55 177.39-16.1 177.39-13.4L177.39-13.4Q177.39-8.9 176.36-5.83 175.34-2.75 173.24-1.2 171.14 0.35 167.84 0.35L167.84 0.35Q165.59 0.35 163.31-0.38 161.04-1.1 159.09-2.2L159.09-2.2 159.09 11.85ZM166.74-3L166.74-3Q168.64-3 170.14-3.95 171.64-4.9 172.54-7.18 173.44-9.45 173.44-13.4L173.44-13.4Q173.44-17.15 172.49-19.43 171.54-21.7 170.04-22.73 168.54-23.75 166.74-23.75L166.74-23.75Q164.44-23.75 162.51-23.03 160.59-22.3 159.09-21.5L159.09-21.5 159.09-5.15Q160.84-4.2 162.81-3.6 164.79-3 166.74-3ZM194.43 0.05L191.03 0.05Q188.73 0.05 187.18-0.78 185.63-1.6 184.83-3.48 184.03-5.35 184.03-8.55L184.03-8.55 184.03-38.15 187.98-38.15 187.98-9.05Q187.98-6.65 188.43-5.43 188.88-4.2 189.73-3.73 190.58-3.25 191.73-3.1L191.73-3.1 194.43-2.8 194.43 0.05ZM203.93 0.3L203.93 0.3Q200.98 0.3 199.08-1.45 197.18-3.2 197.18-6.4L197.18-6.4 197.18-8.3Q197.18-11.45 199.26-13.4 201.33-15.35 205.53-15.35L205.53-15.35 214.58-15.35 214.58-18.65Q214.58-20.3 214.01-21.48 213.43-22.65 211.96-23.3 210.48-23.95 207.68-23.95L207.68-23.95 199.38-23.95 199.38-26.3Q201.13-26.6 203.46-26.85 205.78-27.1 208.93-27.1L208.93-27.1Q212.18-27.15 214.33-26.3 216.48-25.45 217.51-23.63 218.53-21.8 218.53-18.85L218.53-18.85 218.53 0 215.48 0 214.73-3.05Q214.53-2.85 213.51-2.35 212.48-1.85 210.91-1.23 209.33-0.6 207.51-0.15 205.68 0.3 203.93 0.3ZM205.58-2.65L205.58-2.65Q206.48-2.6 207.63-2.85 208.78-3.1 209.98-3.43 211.18-3.75 212.21-4.1 213.23-4.45 213.88-4.7 214.53-4.95 214.58-4.95L214.58-4.95 214.58-13.35 206.43-13Q203.58-12.9 202.36-11.6 201.13-10.3 201.13-8.25L201.13-8.25 201.13-7.05Q201.13-5.45 201.81-4.48 202.48-3.5 203.51-3.1 204.53-2.7 205.58-2.65ZM236.23 11.85L233.13 11.85 236.53 0Q235.28-0.05 233.93-0.6 232.58-1.15 231.43-2.5 230.28-3.85 229.53-6.25L229.53-6.25 223.13-26.7 227.28-26.7 233.23-7.1Q233.78-5.55 234.4-4.8 235.03-4.05 235.68-3.75 236.33-3.45 236.8-3.43 237.28-3.4 237.38-3.4L237.38-3.4 244.23-26.7 248.28-26.7 238.53 6.9 236.23 11.85ZM263.23 0.3L263.23 0.3Q259.03 0.3 256.6-0.95 254.18-2.2 253.13-5.2 252.08-8.2 252.08-13.4L252.08-13.4Q252.08-18.7 253.15-21.68 254.23-24.65 256.68-25.85 259.13-27.05 263.28-27.05L263.28-27.05Q266.83-27.05 269.05-26.25 271.28-25.45 272.35-23.53 273.43-21.6 273.43-18.2L273.43-18.2Q273.43-15.85 272.5-14.43 271.58-13 269.85-12.38 268.13-11.75 265.78-11.75L265.78-11.75 256.03-11.75Q256.08-8.5 256.73-6.53 257.38-4.55 259.1-3.68 260.83-2.8 264.18-2.8L264.18-2.8 272.78-2.8 272.78-0.4Q270.48-0.1 268.28 0.1 266.08 0.3 263.23 0.3ZM255.98-14.35L255.98-14.35 265.48-14.35Q267.73-14.35 268.8-15.18 269.88-16 269.88-18.15L269.88-18.15Q269.88-20.45 269.2-21.73 268.53-23 267.1-23.53 265.68-24.05 263.28-24.05L263.28-24.05Q260.48-24.05 258.88-23.23 257.28-22.4 256.63-20.3 255.98-18.2 255.98-14.35ZM284.02 0L280.07 0 280.07-26.7 283.07-26.7 284.02-22.05Q285.82-24.2 288.05-25.6 290.27-27 293.17-27L293.17-27Q293.87-27 294.5-26.95 295.12-26.9 295.67-26.75L295.67-26.75 295.67-22.7Q295.02-22.8 294.27-22.88 293.52-22.95 292.77-22.95L292.77-22.95Q290.92-22.95 289.47-22.5 288.02-22.05 286.72-21.15 285.42-20.25 284.02-18.95L284.02-18.95 284.02 0Z" opacity="1" transform="matrix(1,0,0,1,0,0)" fill="#ffffff" class="slogan-text-1" data-fill-palette-color="secondary" id="text-1"></path></svg></g></svg></g></svg></g></svg></g><g><svg viewBox="0 0 182.4078923295152 182.4078923295152" height="182.4078923295152" width="182.4078923295152"><g><svg xmlns="http://www.w3.org/2000/svg" xmlns:xlink="http://www.w3.org/1999/xlink" version="1.1" x="0" y="0" viewBox="0 0 24 24" style="enable-background:new 0 0 24 24;" xml:space="preserve" height="182.4078923295152" width="182.4078923295152" class="icon-icon-0" data-fill-palette-color="accent" id="icon-0"><g fill="#8dbdff" data-fill-palette-color="accent"><g fill="#8dbdff" data-fill-palette-color="accent"><path d="M22.5 10.586c-0.276 0-0.5-0.224-0.5-0.5V0.5C22 0.224 22.224 0 22.5 0S23 0.224 23 0.5v9.586C23 10.362 22.776 10.586 22.5 10.586z" fill="#ffffff" data-fill-palette-color="accent"></path></g><g fill="#8dbdff" data-fill-palette-color="accent"><path d="M16 12c0-2.206-1.794-4-4-4s-4 1.794-4 4 1.794 4 4 4S16 14.206 16 12zM11 12c0-0.551 0.449-1 1-1s1 0.449 1 1-0.449 1-1 1S11 12.551 11 12z" fill="#ffffff" data-fill-palette-color="accent"></path><path d="M23.854 10.854L22.207 12.5l0.646 0.646C22.948 13.241 23 13.368 23 13.501c0 0.133-0.054 0.26-0.148 0.354l-3.016 2.984c-0.097 0.096-0.225 0.145-0.352 0.145-0.128 0-0.256-0.049-0.354-0.146l-2-2c-0.094-0.094-0.147-0.222-0.146-0.355 0-0.133 0.054-0.26 0.148-0.354l3.016-2.984c0.196-0.192 0.511-0.192 0.705 0.002l0.646 0.646 1.5-1.5V7.219C21.148 2.976 16.917 0 12 0 5.383 0 0 5.383 0 12s5.383 12 12 12 12-5.383 12-12c0-0.427-0.024-0.848-0.068-1.264C23.909 10.778 23.887 10.82 23.854 10.854zM17.146 16.146c0.195-0.195 0.512-0.195 0.707 0s0.195 0.512 0 0.707l-1 1C16.756 17.951 16.628 18 16.5 18s-0.256-0.049-0.354-0.146c-0.195-0.195-0.195-0.512 0-0.707L17.146 16.146zM5.636 18.364c0.195 0.195 0.195 0.512 0 0.707-0.098 0.098-0.226 0.146-0.354 0.146s-0.256-0.049-0.354-0.146C3.043 17.185 2.004 14.674 2.004 12s1.039-5.185 2.925-7.071c0.195-0.195 0.512-0.195 0.707 0s0.195 0.512 0 0.707C3.939 7.333 3.004 9.593 3.004 12S3.939 16.667 5.636 18.364zM7 12c0-2.757 2.243-5 5-5s5 2.243 5 5-2.243 5-5 5S7 14.757 7 12zM19.071 19.071c-1.886 1.886-4.396 2.925-7.07 2.925-0.276 0-0.5-0.224-0.5-0.5s0.224-0.5 0.5-0.5c2.407 0 4.667-0.935 6.363-2.632 0.195-0.195 0.512-0.195 0.707 0S19.266 18.875 19.071 19.071z" fill="#ffffff" data-fill-palette-color="accent"></path><polygon points="18.193,14.486 19.486,15.779 21.791,13.498 20.498,12.205   " fill="#ffffff" data-fill-palette-color="accent"></polygon></g><path d="M20.854 11.146l0.646 0.646 1.354-1.354c0.195-0.195 0.195-0.512 0-0.707s-0.512-0.195-0.707 0l-1.366 1.366C20.805 11.115 20.832 11.125 20.854 11.146z" fill="#ffffff" data-fill-palette-color="accent"></path></g></svg></g></svg></g></svg></g><defs></defs></svg><rect width="395.52" height="113.54202957611143" fill="none" stroke="none" visibility="hidden"></rect></g></svg></g></svg>